# xmcd
#
# Track frame offsets:
#	150
#	22547
#	77214
#	103124
#	124329
#	181662
#	209498
#	284929
#
# Disc length: 4009 seconds
#
# Revision: 0
# Processed by: cddbd v1.5.2PL0 Copyright (c) Steve Scherf et al.
# Submitted via: dBpowerAMP V4.0
#
DISCID=6e0fa708
DTITLE=Blues Traveler - Schmidt Fieldhouse,Xavier University,Cincinnati,OH (22 Apr 1993) Disc2
DYEAR=1993
DGENRE=Blues/Rock
TTITLE0=01 - 100 Years
TTITLE1=02 - Sweet Pain
TTITLE2=03 - ny Prophesy
TTITLE3=04 - Save His Soul
TTITLE4=05 - go Outside And Drive
TTITLE5=06 - But Anyway
TTITLE6=07 - Crystal Flame
TTITLE7=08 - Johnny B. Goode (Chuck Berry)
EXTD=
EXTT0=
EXTT1=
EXTT2=
EXTT3=
EXTT4=
EXTT5=
EXTT6=
EXTT7=
PLAYORDER=
